<svg xmlns="http://www.w3.org/2000/svg" viewBox="0 0 154 47" aria-label="OpenSubs">
  <g transform="rotate(-2 75.25 21.95)">
    <g transform="translate(2.57 2.57)"><rect x="5.0" y="5.0" width="140.51" height="33.90" rx="16.95" fill="#000" stroke="#000" stroke-width="2.5"/></g>
    <rect x="5.0" y="5.0" width="140.51" height="33.90" rx="16.95" fill="#FFDE01" stroke="#000" stroke-width="2.5"/>
    <path transform="translate(16.25 30.19)" fill="#000" d="M9.36675 0.40249999999999997Q5.8305 0.40249999999999997 3.3177499999999998 -1.9895Q0.8049999999999999 -4.3815 0.8049999999999999 -8.257Q0.8049999999999999 -12.1325 3.335 -14.5015Q5.865 -16.8705 9.366647819063004 -16.8705Q12.857 -16.8705 15.39275 -14.47275Q17.9285 -12.075 17.9285 -8.257Q17.9285 -4.462 15.41575 -2.02975Q12.903 0.40249999999999997 9.36675 0.40249999999999997ZM9.362806733167082 -3.1165Q11.4655 -3.1165 12.87425 -4.573993208828523Q14.283 -6.031486417657046 14.283 -8.257Q14.283 -10.511 12.868500000000001 -11.937Q11.454 -13.363 9.361 -13.363Q7.2909999999999995 -13.363 5.865 -11.9255Q4.439 -10.488 4.439 -8.255644400785854Q4.439 -6.0145 5.849556733167082 -4.5655Q7.260113466334164 -3.1165 9.362806733167082 -3.1165Z M19.274 0.0Q19.274 0.0 19.274 0.0Q19.274 0.0 19.274 0.0V-16.468Q19.274 -16.468 19.274 -16.468Q19.274 -16.468 19.274 -16.468H25.714000000000002Q28.313000000000002 -16.468 29.940250000000002 -14.9385Q31.567500000000003 -13.408999999999999 31.567500000000003 -10.745127475247523Q31.567500000000003 -8.1075 29.859750000000002 -6.61825Q28.152 -5.129 25.679500000000004 -5.129H21.263500000000004V-8.211H25.392000000000003Q26.519000000000002 -8.211 27.2205 -8.897874999999999Q27.922000000000004 -9.58475 27.922000000000004 -10.696Q27.922000000000004 -11.833499999999999 27.232000000000003 -12.546499999999998Q26.542 -13.2595 25.4495 -13.2595H22.896500000000003V0.0Q22.896500000000003 0.0 22.896500000000003 0.0Q22.896500000000003 0.0 22.896500000000003 0.0Z M32.683 0.0Q32.683 0.0 32.683 0.0Q32.683 0.0 32.683 0.0V-16.468Q32.683 -16.468 32.683 -16.468Q32.683 -16.468 32.683 -16.468H43.090500000000006Q43.090500000000006 -16.468 43.090500000000006 -16.468Q43.090500000000006 -16.468 43.090500000000006 -16.468V-13.087Q43.090500000000006 -13.087 43.090500000000006 -13.087Q43.090500000000006 -13.087 43.090500000000006 -13.087H36.2135V-3.381H43.2055Q43.2055 -3.381 43.2055 -3.381Q43.2055 -3.381 43.2055 -3.381V0.0Q43.2055 0.0 43.2055 0.0Q43.2055 0.0 43.2055 0.0ZM34.6495 -6.739V-9.706H42.734Q42.734 -9.706 42.734 -9.706Q42.734 -9.706 42.734 -9.706V-6.739Q42.734 -6.739 42.734 -6.739Q42.734 -6.739 42.734 -6.739Z M45.2295 0.0Q45.2295 0.0 45.2295 0.0Q45.2295 0.0 45.2295 0.0V-16.468Q45.2295 -16.468 45.2295 -16.468Q45.2295 -16.468 45.2295 -16.468H48.967000000000006Q48.967000000000006 -16.468 48.967000000000006 -16.468Q48.967000000000006 -16.468 48.967000000000006 -16.468L55.441500000000005 -6.256H55.522000000000006L55.43000000000001 -9.0505V-16.468Q55.43000000000001 -16.468 55.43000000000001 -16.468Q55.43000000000001 -16.468 55.43000000000001 -16.468H58.9375Q58.9375 -16.468 58.9375 -16.468Q58.9375 -16.468 58.9375 -16.468V0.0Q58.9375 0.0 58.9375 0.0Q58.9375 0.0 58.9375 0.0H55.648500000000006Q55.648500000000006 0.0 55.648500000000006 0.0Q55.648500000000006 0.0 55.648500000000006 0.0L48.737 -10.6375H48.645L48.737 -7.8545V0.0Q48.737 0.0 48.737 0.0Q48.737 0.0 48.737 0.0Z M70.23049999999999 0.40249999999999997Q68.0225 0.40249999999999997 66.4125 -0.67275Q64.8025 -1.748 63.905499999999996 -4.0365Q63.905499999999996 -4.0365 63.905499999999996 -4.0365Q63.905499999999996 -4.0365 63.905499999999996 -4.0365L67.0105 -5.29Q67.0105 -5.29 67.0105 -5.29Q67.0105 -5.29 67.0105 -5.29Q67.6315 -3.91 68.44800000000001 -3.289Q69.2645 -2.668 70.38 -2.668Q71.4725 -2.668 72.16825 -3.20275Q72.86399999999999 -3.7375 72.86399999999999 -4.6345Q72.86399999999999 -5.5085 71.92675 -6.06625Q70.98949999999999 -6.624 69.115 -7.245Q66.8035 -8.0155 65.64775 -9.17125Q64.49199999999999 -10.327 64.49199999999999 -12.052Q64.49199999999999 -14.1565 66.125 -15.5135Q67.758 -16.8705 70.288 -16.8705Q72.3005 -16.8705 73.72075 -15.996500000000001Q75.14099999999999 -15.1225 75.99199999999999 -13.294Q75.99199999999999 -13.294 75.99199999999999 -13.294Q75.99199999999999 -13.294 75.99199999999999 -13.294L73.002 -12.0635Q73.002 -12.0635 73.002 -12.0635Q73.002 -12.0635 73.002 -12.0635Q72.4845 -12.995 71.806 -13.42625Q71.1275 -13.8575 70.1385 -13.8575Q69.276 -13.8575 68.64925 -13.40325Q68.0225 -12.949 68.0225 -12.236Q68.0225 -11.5575 68.61474999999999 -11.11475Q69.207 -10.672 71.461 -9.982Q74.04849999999999 -9.2115 75.23875 -7.89475Q76.429 -6.578 76.429 -4.7495Q76.429 -2.438 74.6235 -1.0177500000000002Q72.818 0.40249999999999997 70.23049999999999 0.40249999999999997Z M83.84649999999999 0.40249999999999997Q80.7645 0.40249999999999997 78.98775 -1.495Q77.211 -3.3925 77.211 -6.3595V-16.468Q77.211 -16.468 77.211 -16.468Q77.211 -16.468 77.211 -16.468H80.83349999999999Q80.83349999999999 -16.468 80.83349999999999 -16.468Q80.83349999999999 -16.468 80.83349999999999 -16.468V-6.3135Q80.83349999999999 -4.715 81.62699999999998 -3.8064999999999998Q82.42049999999999 -2.898 83.84649999999999 -2.898Q85.2725 -2.898 86.066 -3.8064999999999998Q86.8595 -4.715 86.8595 -6.3135V-16.468Q86.8595 -16.468 86.8595 -16.468Q86.8595 -16.468 86.8595 -16.468H90.43599999999999Q90.43599999999999 -16.468 90.43599999999999 -16.468Q90.43599999999999 -16.468 90.43599999999999 -16.468V-6.3595Q90.43599999999999 -3.312 88.67075 -1.45475Q86.90549999999999 0.40249999999999997 83.84649999999999 0.40249999999999997Z M92.31049999999999 0.0Q92.31049999999999 0.0 92.31049999999999 0.0Q92.31049999999999 0.0 92.31049999999999 0.0V-16.468Q92.31049999999999 -16.468 92.31049999999999 -16.468Q92.31049999999999 -16.468 92.31049999999999 -16.468H99.33699999999999Q101.4185 -16.468 102.81 -15.235052872062663Q104.2015 -14.002105744125327 104.2015 -12.1555Q104.2015 -10.8445 103.5575 -9.9245Q102.9135 -9.0045 101.85549999999999 -8.5445V-8.4755Q103.15499999999999 -8.1075 103.97149999999999 -7.07825Q104.788 -6.0489999999999995 104.788 -4.646Q104.788 -2.691 103.362 -1.3455Q101.93599999999999 0.0 99.728 0.0ZM95.93299999999999 -2.898H98.9575Q99.86896774193548 -2.898 100.49998387096772 -3.4960000000000004Q101.13099999999999 -4.094 101.13099999999999 -5.015144278606965Q101.13099999999999 -5.9455 100.46974999999999 -6.52625Q99.8085 -7.107 98.8885 -7.107H95.01299999999999V-9.6025H98.601Q99.52099999999999 -9.6025 100.10749999999999 -10.166Q100.69399999999999 -10.7295 100.69399999999999 -11.546Q100.69399999999999 -12.362499999999999 100.12474999999999 -12.925999999999998Q99.5555 -13.4895 98.6815 -13.4895H95.93299999999999Z M111.205 0.40249999999999997Q108.997 0.40249999999999997 107.387 -0.67275Q105.777 -1.748 104.88 -4.0365Q104.88 -4.0365 104.88 -4.0365Q104.88 -4.0365 104.88 -4.0365L107.985 -5.29Q107.985 -5.29 107.985 -5.29Q107.985 -5.29 107.985 -5.29Q108.606 -3.91 109.42249999999999 -3.289Q110.23899999999999 -2.668 111.3545 -2.668Q112.447 -2.668 113.14275 -3.20275Q113.8385 -3.7375 113.8385 -4.6345Q113.8385 -5.5085 112.90125 -6.06625Q111.964 -6.624 110.0895 -7.245Q107.77799999999999 -8.0155 106.62225 -9.17125Q105.4665 -10.327 105.4665 -12.052Q105.4665 -14.1565 107.0995 -15.5135Q108.7325 -16.8705 111.26249999999999 -16.8705Q113.27499999999999 -16.8705 114.69524999999999 -15.996500000000001Q116.1155 -15.1225 116.9665 -13.294Q116.9665 -13.294 116.9665 -13.294Q116.9665 -13.294 116.9665 -13.294L113.97649999999999 -12.0635Q113.97649999999999 -12.0635 113.97649999999999 -12.0635Q113.97649999999999 -12.0635 113.97649999999999 -12.0635Q113.45899999999999 -12.995 112.78049999999999 -13.42625Q112.10199999999999 -13.8575 111.113 -13.8575Q110.25049999999999 -13.8575 109.62375 -13.40325Q108.997 -12.949 108.997 -12.236Q108.997 -11.5575 109.58924999999999 -11.11475Q110.1815 -10.672 112.43549999999999 -9.982Q115.023 -9.2115 116.21324999999999 -7.89475Q117.4035 -6.578 117.4035 -4.7495Q117.4035 -2.438 115.59799999999998 -1.0177500000000002Q113.79249999999999 0.40249999999999997 111.205 0.40249999999999997Z"/>
  </g>
</svg>
